<svg xmlns="http://www.w3.org/2000/svg" xmlns:xlink="http://www.w3.org/1999/xlink" version="1.1" x="0px" y="0px" viewBox="0 0 100 100" fill="#ffffff" style="enable-background:new 0 0 100 100;" xml:space="preserve"><path d="M70.961,54.221c0.477-1.124,0.487-2.366,0.029-3.498c-0.458-1.131-1.329-2.017-2.453-2.494  c-1.125-0.478-2.367-0.487-3.498-0.029c-1.132,0.458-2.018,1.329-2.494,2.453c-0.476,1.124-0.486,2.366-0.029,3.497  c0.458,1.132,1.329,2.018,2.453,2.494c0.574,0.243,1.179,0.365,1.784,0.365c0.58,0,1.16-0.112,1.714-0.336  C69.599,56.216,70.485,55.345,70.961,54.221z M69.12,53.44c-0.268,0.632-0.766,1.122-1.403,1.38  c-0.636,0.257-1.335,0.251-1.967-0.017c-0.632-0.268-1.122-0.766-1.379-1.403c-0.257-0.636-0.251-1.334,0.017-1.967  c0.268-0.632,0.766-1.122,1.402-1.379c0.312-0.126,0.638-0.189,0.964-0.189c0.34,0,0.68,0.068,1.003,0.206  C69.062,50.625,69.673,52.136,69.12,53.44z"/><path d="M58.738,49.039c0.477-1.125,0.487-2.367,0.029-3.498c-0.458-1.132-1.329-2.018-2.453-2.494  c-2.318-0.982-5.007,0.104-5.991,2.423l0,0c-0.476,1.124-0.486,2.366-0.029,3.498c0.458,1.132,1.329,2.018,2.453,2.494  c0.58,0.246,1.184,0.362,1.777,0.362C56.304,51.825,58,50.778,58.738,49.039z M56.896,48.258c-0.554,1.305-2.065,1.917-3.37,1.362  c-0.632-0.268-1.122-0.766-1.379-1.402c-0.257-0.636-0.251-1.335,0.017-1.967c0.415-0.978,1.369-1.566,2.37-1.566  c0.334,0,0.673,0.065,1,0.204c0.632,0.268,1.122,0.766,1.379,1.402C57.17,46.927,57.164,47.626,56.896,48.258z"/><path d="M46.514,43.856c0.476-1.124,0.486-2.366,0.029-3.498c-0.458-1.132-1.329-2.018-2.453-2.494  c-1.124-0.477-2.366-0.487-3.497-0.029c-1.132,0.458-2.018,1.329-2.494,2.453c-0.477,1.124-0.487,2.366-0.029,3.498  c0.458,1.132,1.329,2.018,2.453,2.494c0.58,0.246,1.184,0.362,1.778,0.362C44.081,46.642,45.777,45.596,46.514,43.856z   M44.673,43.076c-0.552,1.304-2.062,1.916-3.37,1.362c-0.632-0.268-1.122-0.766-1.379-1.402c-0.257-0.636-0.251-1.335,0.017-1.967  l0,0c0.268-0.632,0.766-1.122,1.402-1.379c0.312-0.126,0.638-0.189,0.964-0.189c0.34,0,0.68,0.068,1.003,0.206  c0.632,0.268,1.122,0.766,1.379,1.402C44.947,41.745,44.941,42.443,44.673,43.076z"/><path d="M47.25,22.373c0.418-0.362,1.05-0.317,1.411,0.1c0.362,0.417,0.317,1.049-0.1,1.411c-1.771,1.538-3.137,3.419-4.059,5.594  c-0.162,0.381-0.532,0.61-0.921,0.61c-0.13,0-0.262-0.026-0.39-0.08c-0.509-0.216-0.746-0.803-0.531-1.311  C43.703,26.24,45.247,24.112,47.25,22.373z"/><path d="M49.921,20.466c4.771-2.765,10.413-3.119,15.483-0.969c0.509,0.216,0.746,0.803,0.531,1.311  c-0.216,0.509-0.804,0.745-1.311,0.531c-4.485-1.903-9.479-1.589-13.7,0.857c-0.158,0.091-0.33,0.135-0.5,0.135  c-0.345,0-0.681-0.179-0.866-0.499C49.28,21.355,49.443,20.744,49.921,20.466z"/><path d="M84.684,60.04c0.998-2.354,1.02-4.956,0.061-7.327s-2.784-4.226-5.138-5.224l-0.08-0.034l0.978-2.308  c4.971-11.723-0.523-25.304-12.246-30.274c-11.721-4.969-25.303,0.522-30.274,12.246l-0.979,2.308l-0.08-0.034  c-2.354-0.998-4.957-1.02-7.327-0.061c-2.371,0.959-4.226,2.784-5.224,5.138c-0.998,2.354-1.02,4.956-0.061,7.327  c0.959,2.371,2.784,4.226,5.138,5.224l3.916,1.66l-6.159,3.828c-0.469,0.292-0.613,0.908-0.321,1.377  c0.189,0.305,0.516,0.472,0.85,0.472c0.18,0,0.363-0.048,0.527-0.151l7.329-4.555c0.008-0.005,0.012-0.014,0.02-0.019l2.284,0.969  L16.331,83.594c-0.59,0.483-0.739,0.969-0.739,1.429c0,1.141,0.871,2.446,7.329,3.469c4.232,0.671,9.849,1.041,15.814,1.041  c5.965,0,11.582-0.37,15.814-1.041c6.302-0.999,7.281-2.265,7.325-3.386c0-0.002,0.001-0.003,0.001-0.005l1.843-23.552l2.251,0.955  c0.002,0.009-0.002,0.018,0,0.028l1.821,8.434c0.101,0.469,0.516,0.789,0.977,0.789c0.07,0,0.141-0.007,0.212-0.022  c0.54-0.117,0.883-0.649,0.767-1.188l-1.531-7.088l3.916,1.66c1.202,0.509,2.469,0.765,3.736,0.765c1.215,0,2.431-0.234,3.591-0.704  C81.83,64.219,83.685,62.394,84.684,60.04z M17.772,85.045l0.047-0.073c1.628-1.079,9.341-2.459,20.916-2.459  c11.754,0,19.539,1.424,21,2.51c-1.461,1.085-9.246,2.51-21,2.51C27.06,87.533,19.307,86.128,17.772,85.045z M39.77,51.395  l22.007,9.331l-1.739,22.219c-1.092-0.491-2.802-0.966-5.489-1.391c-4.232-0.671-9.849-1.041-15.814-1.041  c-5.966,0-11.582,0.37-15.814,1.041c-1.325,0.21-2.404,0.432-3.299,0.662L39.77,51.395z M77.686,46.674L38.849,30.207l0.978-2.308  c4.54-10.707,16.943-15.725,27.652-11.185c10.708,4.54,15.726,16.945,11.186,27.653L77.686,46.674z M82.843,59.259  c-0.79,1.863-2.257,3.306-4.133,4.065c-1.875,0.758-3.935,0.74-5.796-0.048l-42.68-18.096c-1.862-0.79-3.306-2.257-4.064-4.132  c-0.758-1.875-0.741-3.934,0.048-5.796c0.79-1.863,2.257-3.306,4.133-4.065c0.918-0.371,1.88-0.557,2.841-0.557  c1.003,0,2.005,0.202,2.956,0.605l42.68,18.096c1.862,0.79,3.306,2.257,4.064,4.133C83.649,55.338,83.632,57.396,82.843,59.259z"/></svg>