<svg xmlns="http://www.w3.org/2000/svg" xmlns:xlink="http://www.w3.org/1999/xlink" version="1.1" x="0px" y="0px" viewBox="0 0 100 100" style="new 0 0 100 100;" fill="#ffffff" xml:space="preserve"><circle cx="28.7" cy="74.7" r="1.4"/><circle cx="34.9" cy="72.2" r="1.4"/><circle cx="41.2" cy="69.8" r="1.4"/><path d="M46.9,12.8c-9.3,0-18.2,3.6-24.8,10.1c-0.2,0.2-0.3,0.5-0.3,0.8s0.1,0.5,0.4,0.7c0,0,1,0.8,2.4,2.3  c-5.4,5.6-8.8,13.2-8.8,21.6c0,7.7,2.8,15.1,8,20.8l-1.3,0.5c-0.4,0.1-0.6,0.5-0.6,0.9v12.8c0,0.6,0.4,1,1,1h58.6c0.6,0,1-0.4,1-1  V48.5c0,0,0-0.1,0-0.1c0,0,0,0,0-0.1C82.4,28.7,66.5,12.8,46.9,12.8z M80.4,49.9v10.1L23.8,81.3V71.2L80.4,49.9z M46.2,54.9  c3.6,0,6.5-2.9,6.5-6.5s-2.9-6.5-6.5-6.5c-3,0-5.5,2-6.3,4.8c-3.7-9.2-9-16-12.6-19.9c5.2-4.7,12-7.6,19.6-7.6  C63,19.2,76,32.3,76,48.3c0,0.4,0,0.8,0,1.2L43.9,61.5c-0.4-2.8-0.9-5.4-1.6-7.9C43.4,54.4,44.7,54.9,46.2,54.9z M41.7,48.4  c0-2.5,2-4.5,4.5-4.5c2.5,0,4.5,2,4.5,4.5s-2,4.5-4.5,4.5C43.7,52.9,41.7,50.9,41.7,48.4z M24.3,23.6c6.2-5.7,14.2-8.8,22.7-8.8  c18.3,0,33.2,14.8,33.5,33L78,48.7c0-0.1,0-0.3,0-0.4c0-17.2-14-31.1-31.1-31.1c-8.1,0-15.4,3.1-20.9,8.1  C25.3,24.6,24.7,24,24.3,23.6z M17.8,48.3c0-7.8,3.1-14.9,8.1-20.2c5.1,5.6,13.9,17.4,16,34.1l-16.2,6.1  C20.6,62.9,17.8,55.8,17.8,48.3z M26.7,82.4l53.7-20.2v20.2H26.7z"/><path d="M27.8,34.3c-0.5-0.3-1.1-0.1-1.4,0.3c-2.5,4-3.8,8.7-3.8,13.4c0,2.5,0.4,4.9,1,7.2c0.1,0.4,0.5,0.7,1,0.7c0.1,0,0.2,0,0.3,0  c0.5-0.2,0.8-0.7,0.7-1.2c-0.6-2.2-1-4.4-1-6.7c0-4.4,1.2-8.7,3.5-12.4C28.4,35.2,28.3,34.6,27.8,34.3z"/></svg>