<svg xmlns="http://www.w3.org/2000/svg" xmlns:xlink="http://www.w3.org/1999/xlink" version="1.1" x="0px" y="0px" fill="#ffffff" viewBox="0 0 100 100" style="enable-background:new 0 0 100 100;" xml:space="preserve"><path d="M13.549,68.804c0,2.877,2.34,5.217,5.217,5.217c1.356,0,2.581-0.532,3.51-1.383l14.536,7.433  c-0.176,0.601-0.274,1.234-0.274,1.89c0,3.721,3.027,6.747,6.748,6.747s6.748-3.026,6.748-6.747s-3.027-6.748-6.748-6.748  c-2.352,0-4.424,1.211-5.633,3.041l-14.175-7.248c0.315-0.671,0.505-1.413,0.505-2.202c0-1.648-0.783-3.102-1.979-4.059l9.25-13.736  c1.128,0.848,2.525,1.357,4.042,1.357c2.175,0,4.108-1.039,5.342-2.642l24.428,4.873c-0.019,0.207-0.032,0.415-0.032,0.627  c0,3.802,3.093,6.895,6.894,6.895c0.775,0,1.518-0.135,2.215-0.372l6.901,13.832c-1.371,0.941-2.273,2.516-2.273,4.301  c0,2.877,2.34,5.217,5.217,5.217s5.217-2.34,5.217-5.217s-2.34-5.217-5.217-5.217c-0.38,0-0.748,0.046-1.105,0.123L75.92,60.833  c1.753-1.251,2.901-3.297,2.901-5.61c0-3.801-3.093-6.894-6.895-6.894c-2.891,0-5.369,1.792-6.391,4.322l-23.894-4.766  c0.254-0.71,0.4-1.471,0.4-2.267c0-0.888-0.177-1.734-0.49-2.511l22.966-8.883c1.23,1.294,2.963,2.107,4.885,2.107  c3.721,0,6.748-3.026,6.748-6.747s-3.027-6.748-6.748-6.748s-6.747,3.027-6.747,6.748c0,1.059,0.252,2.058,0.689,2.95L40.681,41.3  c-0.053,0.021-0.09,0.06-0.138,0.088c-1.238-1.533-3.13-2.518-5.249-2.518c-1.478,0-2.842,0.483-3.955,1.292l-9.105-16.501  c1.265-0.953,2.096-2.453,2.096-4.155c0-2.877-2.34-5.217-5.217-5.217s-5.217,2.34-5.217,5.217s2.34,5.217,5.217,5.217  c0.458,0,0.894-0.078,1.317-0.189l9.433,17.096c-0.824,1.119-1.318,2.496-1.318,3.989c0,1.469,0.477,2.825,1.277,3.934  l-9.607,14.266c-0.464-0.135-0.944-0.231-1.451-0.231C15.888,63.587,13.549,65.927,13.549,68.804z M22.331,19.506  c0,1.773-1.443,3.217-3.217,3.217s-3.217-1.443-3.217-3.217s1.443-3.217,3.217-3.217S22.331,17.732,22.331,19.506z M64.656,29.583  c0-2.618,2.13-4.748,4.747-4.748c2.618,0,4.748,2.13,4.748,4.748c0,2.617-2.13,4.747-4.748,4.747  C66.786,34.33,64.656,32.2,64.656,29.583z M80.769,79.88c0-1.773,1.443-3.217,3.217-3.217s3.217,1.443,3.217,3.217  s-1.443,3.217-3.217,3.217S80.769,81.653,80.769,79.88z M67.033,55.224c0-2.698,2.195-4.894,4.894-4.894  c2.699,0,4.895,2.195,4.895,4.894c0,2.699-2.195,4.895-4.895,4.895C69.228,60.118,67.033,57.923,67.033,55.224z M35.295,50.366  c-2.618,0-4.748-2.13-4.748-4.748s2.13-4.748,4.748-4.748c2.617,0,4.747,2.13,4.747,4.748S37.912,50.366,35.295,50.366z   M38.537,81.961c0-2.618,2.13-4.748,4.748-4.748s4.748,2.13,4.748,4.748c0,2.617-2.13,4.747-4.748,4.747  S38.537,84.578,38.537,81.961z M15.549,68.804c0-1.773,1.443-3.217,3.217-3.217s3.217,1.443,3.217,3.217s-1.443,3.217-3.217,3.217  S15.549,70.577,15.549,68.804z"/></svg>