<svg xmlns="http://www.w3.org/2000/svg" xmlns:xlink="http://www.w3.org/1999/xlink" version="1.1" x="0px" y="0px" viewBox="0 0 100 100" fill="#ffffff" style="enable-background:new 0 0 100 100;" xml:space="preserve"><path d="M85.7,34.3c-2.1,0-3.9,1.5-4.3,3.5H78v-7.1c0-0.6-0.4-1-1-1s-1,0.4-1,1v7.1h-2.3v-7.1c0-0.6-0.4-1-1-1s-1,0.4-1,1v7.1h-2.3  v-7.1c0-0.6-0.4-1-1-1s-1,0.4-1,1v7.1h-2.3v-7.1c0-0.6-0.4-1-1-1s-1,0.4-1,1v7.1h-2.3v-7.1c0-0.6-0.4-1-1-1s-1,0.4-1,1v7.1h-5.5  c-0.1-9.8-8.1-17.8-18-17.8c-8.6,0-15.8,6.1-17.6,14.1h-0.7c-2.6,0-4.7,2.1-4.7,4.7c0,2.6,2.1,4.7,4.7,4.7h1.2  c0.7,2.1,1.7,4,3.1,5.7C10.5,57.6,9.8,79,9.8,79.9c0,0.3,0.1,0.5,0.3,0.7c0.2,0.2,0.4,0.3,0.7,0.3h16c0.3,0,0.6-0.1,0.8-0.4  c0.2-0.2,0.3-0.6,0.2-0.9c0-0.1-3.7-14.1,2.8-24.5c1.5,0.4,3.1,0.7,4.8,0.7c0.8,0,1.5-0.1,2.2-0.2v5c0,0.6,0.4,1,1,1h5.2  c0.6,0,1-0.4,1-1v-7.6c4.7-2.9,7.9-7.8,8.5-13.5h5.6v7.1c0,0.6,0.4,1,1,1s1-0.4,1-1v-7.1h2.3v7.1c0,0.6,0.4,1,1,1s1-0.4,1-1v-7.1  h2.3v7.1c0,0.6,0.4,1,1,1s1-0.4,1-1v-7.1h2.3v7.1c0,0.6,0.4,1,1,1s1-0.4,1-1v-7.1H76v7.1c0,0.6,0.4,1,1,1s1-0.4,1-1v-7.1h3.4  c0.5,2,2.2,3.5,4.3,3.5c2.5,0,4.5-2,4.5-4.5S88.2,34.3,85.7,34.3z M17.1,41.5c-1.5,0-2.7-1.2-2.7-2.7s1.2-2.7,2.7-2.7h0.4  c-0.1,0.6-0.1,1.2-0.1,1.8c0,1.2,0.1,2.4,0.4,3.6H17.1z M25.6,78.9H11.9c0.3-4.4,1.9-21.5,10.8-28.3c1.7,1.7,3.7,3,5.9,3.9  C23.1,63.8,24.8,75.2,25.6,78.9z M42.7,59.7h-3.2v-4.4c1.1-0.3,2.2-0.6,3.2-1.1V59.7z M35.3,53.9c-8.2,0-14.9-6.2-15.9-14.1h20.9  c0.6,0,1-0.4,1-1s-0.4-1-1-1h-21c0.1-8.7,7.2-15.8,16-15.8c8.8,0,16,7.2,16,16S44.1,53.9,35.3,53.9z M85.7,41.2  c-1.4,0-2.5-1.1-2.5-2.5s1.1-2.5,2.5-2.5c1.4,0,2.5,1.1,2.5,2.5S87.1,41.2,85.7,41.2z"/><path d="M43.3,38.7c0,1.7,1.4,3.1,3.1,3.1s3.1-1.4,3.1-3.1s-1.4-3.1-3.1-3.1S43.3,37,43.3,38.7z M47.5,38.7c0,0.6-0.5,1.1-1.1,1.1  s-1.1-0.5-1.1-1.1s0.5-1.1,1.1-1.1S47.5,38.1,47.5,38.7z"/></svg>