<svg xmlns="http://www.w3.org/2000/svg" xmlns:xlink="http://www.w3.org/1999/xlink" version="1.1" x="0px" y="0px" viewBox="0 0 100 100" style="enable-background:new 0 0 100 100;" fill="#ffffff" xml:space="preserve"><path d="M80.4,37.3c2.8-5.1,3.4-9.3,1.4-11.8c-2.3-3-7.9-3.2-16-0.5c-10-6-23.1-5.8-33,1.7c-6.2,4.7-10.2,11.5-11.4,19.1  c-7.3,4-11,8.2-10.4,11.9c0.5,2.7,3.1,5,7.5,6.4c-1.8,4-1.9,7.2-0.4,9.3c1.3,1.7,3.5,2.5,6.5,2.5c2.5,0,5.5-0.6,8.8-1.6  c5,3.6,11,5.4,17.1,5.4c6.2,0,12.4-1.9,17.7-5.9c5.8-4.4,9.7-10.6,11.2-17.7c6.8-3.7,10.7-7.9,10-11.8C89,40.9,86.1,38.7,80.4,37.3z   M80.2,26.7c1.5,2,0.8,5.6-1.9,10.2c-0.5-0.1-1-0.2-1.5-0.2c0,0,0,0-0.1,0c-0.8-1.4-1.6-2.8-2.6-4.2c-1.8-2.4-3.9-4.4-6.2-6.1  C74.2,24.6,78.7,24.7,80.2,26.7z M77.9,54c0,0.2-0.1,0.5-0.1,0.7c-5.3,2.7-12.5,5.2-21.1,7c0.6-0.4,1.2-0.9,1.8-1.3  c7.6-5.7,14.2-12.1,18.6-18C78.1,46.2,78.4,50.1,77.9,54z M34.1,28.3c4.9-3.7,10.7-5.5,16.5-5.5c8.3,0,16.6,3.8,22,10.9  c1.5,2,2.7,4.2,3.6,6.5c-4.4,6.1-11.1,12.7-19,18.7c-1.8,1.4-3.6,2.6-5.3,3.8c-9.2,1.5-18,1.9-25.1,1.1c-3-5.2-4.2-11.3-3.3-17.4  C24.5,39.1,28.3,32.7,34.1,28.3z M47.7,65.3c-5,3-9.7,5.3-13.7,6.7c-1.9-1.5-3.7-3.2-5.3-5.3c-0.2-0.3-0.4-0.5-0.6-0.8  c2.1,0.2,4.3,0.3,6.6,0.3C38.8,66.2,43.2,65.9,47.7,65.3z M24.3,63.4c-1-0.2-1.9-0.4-2.8-0.6c0.4-0.8,0.9-1.6,1.5-2.5  C23.4,61.4,23.8,62.4,24.3,63.4z M13.1,57.3c-0.4-2.5,2.6-5.9,8.1-9.1c-0.2,3.3,0.1,6.5,0.9,9.6c-1.1,1.5-2,3-2.7,4.4  C15.7,61.1,13.5,59.4,13.1,57.3z M19.9,72.2c-1.1-1.5-0.8-4.1,0.7-7.5c1.3,0.3,2.7,0.6,4.1,0.8c0.3,0,0.5,0.1,0.8,0.1  c0.5,0.8,1,1.6,1.6,2.3c1.4,1.8,2.9,3.4,4.6,4.8C25.8,74.5,21.5,74.3,19.9,72.2z M67.2,72.1c-9.4,7.1-21.9,7.2-31.2,1.2  c5.1-1.9,10.8-4.9,16.6-8.8c0,0,0.1,0,0.1,0c9.6-1.6,18.1-4.3,24.5-7.4C75.6,63.2,72.2,68.4,67.2,72.1z M79.9,53.6  c0.5-4.5,0-9-1.5-13.1c0.3-0.4,0.6-0.9,0.9-1.3c5.1,1.1,7.8,2.9,8.3,5.4C88.1,47.2,85.3,50.4,79.9,53.6z"/><path d="M30.1,55.1c0.1,0,0.2,0,0.4-0.1c0.5-0.2,0.8-0.8,0.6-1.3c-2.5-6.3-0.7-13.4,4.5-17.8c0.4-0.4,0.5-1,0.1-1.4  c-0.4-0.4-1-0.5-1.4-0.1c-5.8,4.9-7.8,12.9-5,20C29.4,54.8,29.7,55.1,30.1,55.1z"/></svg>