<svg xmlns="http://www.w3.org/2000/svg" xmlns:xlink="http://www.w3.org/1999/xlink" version="1.1" x="0px" y="0px" viewBox="0 0 100 100" fill="#ffffff" style="enable-background:new 0 0 100 100;" xml:space="preserve"><path d="M25.4,70.8c0.3,0,0.5-0.1,0.7-0.3l2.1-2.1c0.4-0.4,0.4-1,0-1.4s-1-0.4-1.4,0l-2.1,2.1c-0.4,0.4-0.4,1,0,1.4  C24.9,70.7,25.2,70.8,25.4,70.8z"/><path d="M12.2,89.3c0.3,0,0.5-0.1,0.7-0.3l10.9-10.9c0.4-0.4,0.4-1,0-1.4s-1-0.4-1.4,0L11.5,87.6c-0.4,0.4-0.4,1,0,1.4  C11.7,89.2,11.9,89.3,12.2,89.3z"/><path d="M15.9,73.2c0.3,0,0.5-0.1,0.7-0.3l10.7-10.7l4.8,4.8c0,0,0,0,0,0L25,74.2c-0.4,0.4-0.4,1,0,1.4c0.2,0.2,0.5,0.3,0.7,0.3  s0.5-0.1,0.7-0.3l7.2-7.2c0,0,0,0,0,0l1.3,1.3L20.6,84.1c-0.4,0.4-0.4,1,0,1.4c0.2,0.2,0.5,0.3,0.7,0.3s0.5-0.1,0.7-0.3l14.3-14.3  l3.8,3.8c0.2,0.2,0.5,0.3,0.7,0.3s0.5-0.1,0.7-0.3l2.8-2.8l2.1,2.1c0.2,0.2,0.4,0.3,0.7,0.3c0,0,0,0,0.1,0c0.3,0,0.6-0.2,0.7-0.4  L58,60.8c0.3-0.4,0.3-1-0.1-1.3l0,0l26-26c0,0,0,0,0,0c0.8-0.8,8.4-8.2,4.8-20.8c-0.1-0.3-0.4-0.6-0.7-0.7  c-12.7-3.6-20.4,4.3-20.8,4.9l-26,26l-0.1-0.1c-0.4-0.4-0.9-0.4-1.3-0.1L26.5,52.7c-0.2,0.2-0.4,0.4-0.4,0.7s0.1,0.6,0.3,0.8  l1.7,1.7l-2.8,2.8c-0.4,0.4-0.4,1,0,1.4l0.7,0.7L15.2,71.5c-0.4,0.4-0.4,1,0,1.4C15.4,73.1,15.7,73.2,15.9,73.2z M87,13.6  c2.5,9.6-2,15.7-3.8,17.6L69.4,17.4C71.4,15.7,77.6,11.2,87,13.6z M68,18.8l13.8,13.8L56.5,58L42.6,44.2L68,18.8z M40.3,44.7  l15.6,15.6L47,71.9L28.6,53.6L40.3,44.7z M29.5,57.3l13.4,13.4l-2.1,2.1L27.4,59.4L29.5,57.3z"/><path d="M15,81.2c0.3,0,0.5-0.1,0.7-0.3l8-8c0.4-0.4,0.4-1,0-1.4s-1-0.4-1.4,0l-8,8c-0.4,0.4-0.4,1,0,1.4  C14.5,81.1,14.7,81.2,15,81.2z"/><path d="M23.4,89.7c0.3,0,0.5-0.1,0.7-0.3l2.1-2.1c0.4-0.4,0.4-1,0-1.4s-1-0.4-1.4,0L22.7,88c-0.4,0.4-0.4,1,0,1.4  C22.9,89.6,23.2,89.7,23.4,89.7z"/><path d="M28.7,84.8l8-8c0.4-0.4,0.4-1,0-1.4s-1-0.4-1.4,0l-8,8c-0.4,0.4-0.4,1,0,1.4c0.2,0.2,0.5,0.3,0.7,0.3S28.6,85,28.7,84.8z"/><path d="M63.3,37.6c1.3,1.3,2.9,1.9,4.6,1.9c1.7,0,3.3-0.6,4.6-1.9c2.5-2.5,2.5-6.7,0-9.2c-2.5-2.5-6.7-2.5-9.2,0  c-1.2,1.2-1.9,2.9-1.9,4.6S62,36.3,63.3,37.6z M64.7,29.7c0.9-0.9,2-1.3,3.2-1.3c1.2,0,2.3,0.4,3.2,1.3c1.8,1.8,1.8,4.6,0,6.4  c-1.8,1.8-4.6,1.8-6.4,0C62.9,34.4,62.9,31.5,64.7,29.7z"/><path d="M67.1,31.8c0.5-0.5,1.2-0.5,1.6,0c0.2,0.2,0.5,0.3,0.7,0.3s0.5-0.1,0.7-0.3c0.4-0.4,0.4-1,0-1.4c-1.2-1.2-3.2-1.2-4.5,0  c-0.4,0.4-0.4,1,0,1.4S66.8,32.2,67.1,31.8z"/></svg>