<svg xmlns="http://www.w3.org/2000/svg" xmlns:xlink="http://www.w3.org/1999/xlink" fill="#ffffff" version="1.1" x="0px" y="0px" viewBox="0 0 100 100" style="enable-background:new 0 0 100 100;" xml:space="preserve"><path d="M24.5,40.4c6.8,0,12.2-5.5,12.2-12.2s-5.5-12.2-12.2-12.2c-6.8,0-12.2,5.5-12.2,12.2S17.7,40.4,24.5,40.4z M24.5,17.9  c5.6,0,10.2,4.6,10.2,10.2s-4.6,10.2-10.2,10.2s-10.2-4.6-10.2-10.2S18.8,17.9,24.5,17.9z"/><path d="M89,29.5c0-9.2-7.5-16.7-16.7-16.7s-16.7,7.5-16.7,16.7s7.5,16.7,16.7,16.7S89,38.7,89,29.5z M57.6,30.5h10.6  c0.6,0,1-0.4,1-1s-0.4-1-1-1H57.6c0.1-0.8,0.2-1.5,0.3-2.3h13.3c0.6,0,1-0.4,1-1s-0.4-1-1-1H58.5c2.1-5.5,7.5-9.5,13.7-9.5  c4.3,0,8.2,1.9,10.9,4.9h-6.3c-0.6,0-1,0.4-1,1s0.4,1,1,1h7.8c0,0,0.1,0,0.1,0c1.4,2.3,2.3,5,2.3,7.8c0,1-0.1,2.1-0.3,3H73.3  c-0.6,0-1,0.4-1,1s0.4,1,1,1h12.8c-0.2,0.5-0.4,0.9-0.6,1.4h-6.7c-0.6,0-1,0.4-1,1s0.4,1,1,1h5.5c-2.7,3.8-7.1,6.3-12.1,6.3  C64.5,44.2,58.1,38.2,57.6,30.5z"/><path d="M76.4,37.9c0.6,0,1-0.4,1-1s-0.4-1-1-1h-3.9c-0.6,0-1,0.4-1,1s0.4,1,1,1H76.4z"/><path d="M68.7,64.2c0-12.7-10.3-23-23-23c-12.7,0-23,10.3-23,23c0,12.7,10.3,23,23,23C58.4,87.2,68.7,76.9,68.7,64.2z M60.2,79.3  c-0.5-0.1-0.9-0.3-1.4-0.5c-1.6-0.6-3.2-1.2-6.5-1.2c-3.2,0-4.9,0.6-6.5,1.2c-1.5,0.5-2.9,1-5.8,1c-2.9,0-4.3-0.5-5.8-1  c-1.2-0.4-2.5-0.9-4.6-1.1c-1.9-2.3-3.4-5-4.2-8c2.7,0.1,4.1,0.6,5.7,1c1.8,0.6,3.7,1.2,7.3,1.2c3.7,0,5.5-0.6,7.3-1.2  c1.7-0.5,3.4-1.1,6.7-1.1c3.4,0,5,0.5,6.7,1.1c1.6,0.5,3.2,1,6,1.1C64.1,74.8,62.4,77.3,60.2,79.3z M30.2,50.2  c1.4,0.2,2.4,0.5,3.4,0.9c1.6,0.6,3.2,1.2,6.4,1.2c3.2,0,4.9-0.6,6.4-1.2c1.5-0.5,2.9-1,5.8-1c2.9,0,4.2,0.5,5.6,1  c1.3,0.5,2.7,1,5.1,1.1c1.6,2.3,2.8,5,3.4,7.9c-2.7-0.1-4.2-0.6-5.8-1c-1.8-0.6-3.7-1.2-7.4-1.2s-5.6,0.6-7.4,1.2  c-1.8,0.5-3.4,1.1-6.8,1.1c-3.4,0-5.1-0.5-6.8-1.1c-1.6-0.5-3.3-1-6.4-1.1C26.6,55,28.2,52.4,30.2,50.2z M31.5,61  c1.8,0.6,3.7,1.2,7.4,1.2c3.7,0,5.6-0.6,7.4-1.2c1.8-0.5,3.4-1.1,6.8-1.1c3.4,0,5.1,0.5,6.8,1.1c1.7,0.5,3.5,1.1,6.7,1.1  c0.1,0.7,0.1,1.4,0.1,2.1c0,2-0.3,3.9-0.8,5.8c-2.9-0.1-4.4-0.5-6-1c-1.8-0.6-3.7-1.2-7.3-1.2c-3.7,0-5.5,0.6-7.3,1.2  c-1.7,0.5-3.4,1.1-6.7,1.1c-3.4,0-5-0.5-6.7-1.1c-1.7-0.5-3.5-1.1-6.7-1.1c-0.2-1.2-0.3-2.4-0.3-3.6c0-1.5,0.2-2.9,0.5-4.3  C28.2,60,29.8,60.4,31.5,61z M61,50c-1-0.2-1.7-0.5-2.5-0.8C57,48.6,55.4,48,52.2,48c-3.2,0-4.9,0.6-6.4,1.2c-1.5,0.5-2.9,1-5.8,1  c-2.9,0-4.3-0.5-5.8-1c-0.7-0.3-1.4-0.5-2.3-0.7c3.7-3.2,8.5-5.2,13.8-5.2C51.8,43.2,57.2,45.8,61,50z M32.2,80.3  c0.5,0.1,0.9,0.3,1.4,0.5c1.6,0.6,3.2,1.2,6.5,1.2c3.2,0,4.9-0.6,6.5-1.2c1.5-0.5,2.9-1,5.8-1c2.9,0,4.3,0.5,5.8,1  c0.1,0,0.2,0.1,0.3,0.1c-3.5,2.7-8,4.4-12.8,4.4C40.6,85.2,35.9,83.3,32.2,80.3z"/></svg>