<svg xmlns="http://www.w3.org/2000/svg" xmlns:xlink="http://www.w3.org/1999/xlink" version="1.1" x="0px" y="0px" viewBox="0 0 100 100" fill="#ffffff" style="enable-background:new 0 0 100 100;" xml:space="preserve"><path d="M58.9,83.3l-2.5-1.8l0.1-3.1c0-0.4-0.2-0.7-0.5-0.9c-0.3-0.2-0.7-0.1-1.1,0.1l-2.5,1.8l-3-1.1c-0.4-0.1-0.8,0-1,0.2  c-0.3,0.3-0.4,0.7-0.3,1l1,3L47.1,85c-0.2,0.3-0.3,0.7-0.1,1.1s0.5,0.6,0.9,0.6l3.1,0l1.8,2.6c0.2,0.3,0.5,0.4,0.8,0.4  c0,0,0.1,0,0.1,0c0.4-0.1,0.7-0.3,0.8-0.7l1-3l3-0.9c0.4-0.1,0.6-0.4,0.7-0.8S59.2,83.5,58.9,83.3z M54.5,84.2  c-0.3,0.1-0.6,0.3-0.7,0.6l-0.5,1.6L52.4,85c-0.2-0.3-0.5-0.4-0.8-0.4l-1.6,0l1-1.3c0.2-0.3,0.3-0.6,0.2-0.9l-0.5-1.6l1.5,0.5  c0.3,0.1,0.7,0.1,0.9-0.1l1.3-1l0,1.6c0,0.3,0.1,0.6,0.4,0.8l1.3,1L54.5,84.2z"/><path d="M11.8,56c0.3,0.3,0.7,0.4,1,0.3l3-0.9l2.5,1.9c0.2,0.1,0.4,0.2,0.6,0.2c0.1,0,0.3,0,0.4-0.1c0.3-0.2,0.6-0.5,0.6-0.9l0-3.1  l2.6-1.8c0.3-0.2,0.5-0.6,0.4-1c-0.1-0.4-0.3-0.7-0.7-0.8l-3-1l-0.9-3c-0.1-0.4-0.4-0.6-0.8-0.7c-0.4-0.1-0.8,0.1-1,0.4L14.8,48  l-3.1-0.1c-0.4,0-0.7,0.2-0.9,0.5c-0.2,0.3-0.2,0.7,0.1,1.1l1.8,2.6l-1.1,2.9C11.4,55.3,11.5,55.7,11.8,56z M15.3,50  c0.3,0,0.6-0.1,0.8-0.4l1-1.3l0.5,1.6c0.1,0.3,0.3,0.6,0.6,0.7l1.5,0.5l-1.4,0.9c-0.3,0.2-0.4,0.5-0.4,0.8l0,1.6l-1.3-1  c-0.2-0.1-0.4-0.2-0.6-0.2c-0.1,0-0.2,0-0.3,0l-1.6,0.5l0.6-1.5c0.1-0.3,0.1-0.7-0.1-0.9l-0.9-1.3L15.3,50z"/><path d="M89.3,49.1l-3-1l-0.9-3c-0.1-0.4-0.4-0.6-0.8-0.7c-0.4-0.1-0.8,0.1-1,0.4l-1.9,2.5l-3.1-0.1c-0.4,0-0.7,0.2-0.9,0.5  c-0.2,0.3-0.2,0.7,0.1,1.1l1.8,2.6l-1.1,2.9c-0.1,0.4,0,0.8,0.2,1s0.7,0.4,1,0.3l3-0.9l2.5,1.9c0.2,0.1,0.4,0.2,0.6,0.2  c0.1,0,0.3,0,0.4-0.1c0.3-0.2,0.6-0.5,0.6-0.9l0-3.1l2.6-1.8c0.3-0.2,0.5-0.6,0.4-1C89.9,49.5,89.7,49.2,89.3,49.1z M85.4,51.3  c-0.3,0.2-0.4,0.5-0.4,0.8l0,1.6l-1.3-1c-0.2-0.1-0.4-0.2-0.6-0.2c-0.1,0-0.2,0-0.3,0L81.2,53l0.6-1.5c0.1-0.3,0.1-0.7-0.1-0.9  l-0.9-1.3l1.6,0.1c0.3,0,0.6-0.1,0.8-0.4l1-1.3l0.5,1.6c0.1,0.3,0.3,0.6,0.6,0.7l1.5,0.5L85.4,51.3z"/><path d="M57.1,19.6c-0.2-0.3-0.6-0.5-1-0.5l-2.3,0.3l-1.5-1.7c-0.3-0.3-0.6-0.4-1-0.3c-0.4,0.1-0.6,0.4-0.7,0.8l-0.5,2.3L48,21.4  c-0.4,0.2-0.6,0.5-0.6,0.9c0,0.4,0.2,0.7,0.5,0.9l2,1.1l0.2,2.3c0,0.4,0.3,0.7,0.6,0.8c0.1,0,0.2,0.1,0.4,0.1c0.2,0,0.5-0.1,0.7-0.3  l1.7-1.6l2.3,0.5c0.4,0.1,0.8,0,1-0.3c0.2-0.3,0.3-0.7,0.1-1l-1-2.1l1.2-2C57.3,20.4,57.3,20,57.1,19.6z M53.9,23l0.3,0.7l-0.8-0.2  c-0.3-0.1-0.7,0-0.9,0.2l-0.6,0.5l-0.1-0.8c0-0.3-0.2-0.6-0.5-0.8l-0.7-0.4l0.7-0.3c0.3-0.1,0.5-0.4,0.6-0.7l0.2-0.8l0.5,0.6  c0.2,0.2,0.5,0.4,0.9,0.3l0.8-0.1l-0.4,0.7C53.8,22.4,53.8,22.7,53.9,23z"/><path d="M22.7,12.5c-0.2-0.3-0.6-0.5-1-0.5l-2.3,0.3l-1.5-1.7c-0.3-0.3-0.6-0.4-1-0.3c-0.4,0.1-0.6,0.4-0.7,0.8l-0.5,2.3l-2.1,0.9  c-0.4,0.2-0.6,0.5-0.6,0.9c0,0.4,0.2,0.7,0.5,0.9l2,1.1l0.2,2.3c0,0.4,0.3,0.7,0.6,0.8c0.1,0,0.2,0.1,0.4,0.1c0.2,0,0.5-0.1,0.7-0.3  l1.7-1.6l2.3,0.5c0.4,0.1,0.8,0,1-0.3s0.3-0.7,0.1-1l-1-2.1l1.2-2C22.9,13.2,22.9,12.8,22.7,12.5z M19.5,15.9l0.3,0.7L19,16.5  c-0.3-0.1-0.7,0-0.9,0.2l-0.6,0.5l-0.1-0.8c0-0.3-0.2-0.6-0.5-0.8l-0.7-0.4l0.7-0.3c0.3-0.1,0.5-0.4,0.6-0.7l0.2-0.8l0.5,0.6  c0.2,0.2,0.5,0.4,0.9,0.3l0.8-0.1L19.5,15C19.4,15.2,19.3,15.6,19.5,15.9z"/><path d="M88.6,78.7L86.3,79l-1.5-1.7c-0.3-0.3-0.6-0.4-1-0.3c-0.4,0.1-0.6,0.4-0.7,0.8L82.6,80l-2.1,0.9c-0.4,0.2-0.6,0.5-0.6,0.9  c0,0.4,0.2,0.7,0.5,0.9l2,1.1l0.2,2.3c0,0.4,0.3,0.7,0.6,0.8c0.1,0,0.2,0.1,0.4,0.1c0.2,0,0.5-0.1,0.7-0.3l1.7-1.6l2.3,0.5  c0.4,0.1,0.8,0,1-0.3c0.2-0.3,0.3-0.7,0.1-1l-1-2.1l1.2-2c0.2-0.3,0.2-0.7,0-1.1S89,78.7,88.6,78.7z M86.3,82.6l0.3,0.7l-0.8-0.2  c-0.3-0.1-0.7,0-0.9,0.2l-0.6,0.5l-0.1-0.8c0-0.3-0.2-0.6-0.5-0.8l-0.7-0.4l0.7-0.3c0.3-0.1,0.5-0.4,0.6-0.7l0.2-0.8l0.5,0.6  c0.2,0.2,0.5,0.4,0.9,0.3l0.8-0.1l-0.4,0.7C86.2,81.9,86.2,82.3,86.3,82.6z"/><path d="M80.6,8.9c-0.4-0.4-1-0.4-1.4,0L52.7,35.4c-0.2,0.2-0.3,0.4-0.3,0.7s0.1,0.5,0.3,0.7l4.6,4.6L56,42.9l-8.1-8.1  c-0.2-0.2-0.4-0.3-0.7-0.3s-0.5,0.1-0.7,0.3l-5.2,5.2l-1-1c2.3-2.3,3.6-5.4,3.6-8.7c0-3.3-1.3-6.4-3.6-8.7c-0.4-0.4-1-0.4-1.4,0  l-8,8l-1.6-1.6c0.5-1.1,0.3-2.5-0.6-3.4c0,0,0,0,0,0c-1.1-1.1-3.1-1.1-4.2,0c-1.2,1.2-1.2,3.1,0,4.2c0.6,0.6,1.3,0.9,2.1,0.9  c0.5,0,0.9-0.1,1.3-0.3l1.6,1.6l-8,8c-0.2,0.2-0.3,0.4-0.3,0.7s0.1,0.5,0.3,0.7c2.4,2.4,5.5,3.6,8.7,3.6c3.1,0,6.3-1.2,8.7-3.6l1,1  l-5.2,5.2c-0.4,0.4-0.4,1,0,1.4l8.1,8.1l-1.5,1.5l-4.6-4.6c-0.4-0.4-1-0.4-1.4,0L8.7,79.5c-0.2,0.2-0.3,0.4-0.3,0.7s0.1,0.5,0.3,0.7  l10.7,10.7c0.2,0.2,0.4,0.3,0.7,0.3s0.5-0.1,0.7-0.3L47.4,65c0.4-0.4,0.4-1,0-1.4l-4.6-4.6l1.5-1.5l17,17c1.8,1.8,4.2,2.7,6.6,2.7  s4.8-0.9,6.6-2.7c1.8-1.8,2.7-4.1,2.7-6.6s-1-4.8-2.7-6.6l-17-17l1.4-1.4l4.6,4.6c0.2,0.2,0.5,0.3,0.7,0.3s0.5-0.1,0.7-0.3  l26.5-26.5c0.2-0.2,0.3-0.4,0.3-0.7s-0.1-0.5-0.3-0.7L80.6,8.9z M25.9,27.4c-0.4-0.4-0.4-1,0-1.4c0.2-0.2,0.4-0.3,0.7-0.3  c0.3,0,0.5,0.1,0.7,0.3c0.4,0.4,0.4,1,0,1.4C26.9,27.8,26.3,27.8,25.9,27.4z M23.7,39.6l15.8-15.8c3.3,4,3.1,10-0.7,13.8l-1.3,1.3  C33.8,42.7,27.8,42.9,23.7,39.6z M36,55l3.9,3.9l-3.9,3.9l-3.9-3.9L36,55z M36.1,73.4l-3.9-3.9l3.9-3.9l3.9,3.9L36.1,73.4z   M30.8,78.7l-3.9-3.9l3.9-3.9l3.9,3.9L30.8,78.7z M25.6,84l-3.9-3.9l3.9-3.9l3.9,3.9L25.6,84z M20.1,70.8l3.9,3.9l-3.9,3.9l-3.9-3.9  L20.1,70.8z M25.4,65.6l3.9,3.9l-3.9,3.9l-3.9-3.9L25.4,65.6z M30.8,68.1l-3.9-3.9l3.9-3.9l3.9,3.9L30.8,68.1z M14.9,76.1l3.9,3.9  l-4.1,4.1l-3.9-3.9L14.9,76.1z M20.1,89.5l-3.9-3.9l4.1-4.1l3.9,3.9L20.1,89.5z M45.3,64.3l-3.9,3.9l-3.9-3.9l3.9-3.9L45.3,64.3z   M75.1,67.8c0,2-0.8,3.8-2.1,5.2c-2.9,2.9-7.5,2.9-10.3,0L36.9,47.2l10.3-10.3L73,62.7C74.4,64.1,75.1,65.9,75.1,67.8z M79.9,11.1  l3.9,3.9L80,18.9l-3.9-3.9L79.9,11.1z M80.1,29.5l-3.9-3.9l3.8-3.8l3.9,3.9L80.1,29.5z M74.8,34.7l-3.9-3.9l3.8-3.8l3.9,3.9  L74.8,34.7z M69.6,40L65.6,36l3.8-3.8l3.9,3.9L69.6,40z M64.1,26.8l3.9,3.9l-3.8,3.8l-3.9-3.9L64.1,26.8z M69.4,21.6l3.9,3.9  l-3.8,3.8l-3.9-3.9L69.4,21.6z M74.8,24.1l-3.9-3.9l3.8-3.8l3.9,3.9L74.8,24.1z M54.8,36.1l4-4l3.9,3.9l-4,4L54.8,36.1z M64.1,45.4  l-3.9-3.9l4-4l3.9,3.9L64.1,45.4z M85.4,24.2l-3.9-3.9l3.8-3.8l3.9,3.9L85.4,24.2z"/></svg>