<svg xmlns="http://www.w3.org/2000/svg" xmlns:xlink="http://www.w3.org/1999/xlink" version="1.1" x="0px" y="0px" fill="#ffffff" viewBox="0 0 100 100" style="enable-background:new 0 0 100 100;" xml:space="preserve"><path d="M92.8,28.4L87.2,10c-0.1-0.3-0.3-0.5-0.5-0.6c-0.2-0.1-0.5-0.1-0.8-0.1l-13.1,4.1c-0.3,0.1-0.5,0.3-0.6,0.5  c-0.1,0.2-0.1,0.5-0.1,0.8l0.3,0.8l-3.1,1c-0.5,0.2-0.8,0.7-0.7,1.3l0.2,0.6L16.4,34.6c-0.5,0.2-0.8,0.7-0.7,1.3l0.5,1.6L9,39.7  c-0.5,0.2-0.8,0.7-0.7,1.3l1.9,6.2c0.1,0.3,0.3,0.5,0.5,0.6c0.1,0.1,0.3,0.1,0.5,0.1c0.1,0,0.2,0,0.3,0l7.2-2.2l0.5,1.6  c0.1,0.3,0.3,0.5,0.5,0.6c0.1,0.1,0.3,0.1,0.5,0.1c0.1,0,0.2,0,0.3,0l25.9-8c0.6,1,1.5,1.7,2.6,2v4.9h-2c-0.6,0-1,0.4-1,1s0.4,1,1,1  h1.1l-18,34.9c-0.3,0.5-0.1,1.1,0.4,1.3c0.1,0.1,0.3,0.1,0.5,0.1c0.4,0,0.7-0.2,0.9-0.5l17.2-33.3v39.6c0,0.6,0.4,1,1,1s1-0.4,1-1  V51.5l17.1,33.1c0.2,0.3,0.5,0.5,0.9,0.5c0.2,0,0.3,0,0.5-0.1c0.5-0.3,0.7-0.9,0.4-1.3l-18-34.9h1.3c0.6,0,1-0.4,1-1s-0.4-1-1-1  h-2.2v-4.9c1.9-0.4,3.4-2.2,3.4-4.2c0-0.1,0-0.2,0-0.3l18.5-5.7l0.3,0.9c0.1,0.3,0.3,0.5,0.5,0.6c0.1,0.1,0.3,0.1,0.5,0.1  c0.1,0,0.2,0,0.3,0l3.1-1l0.3,0.8c0.1,0.4,0.5,0.7,1,0.7c0.1,0,0.2,0,0.3,0l13.1-4.1C92.7,29.5,93,28.9,92.8,28.4z M11.9,45.6  l-1.3-4.3l6.2-1.9l1.3,4.3L11.9,45.6z M50.1,40c-1.3,0-2.3-1-2.3-2.3c0-1.3,1-2.3,2.3-2.3c1.3,0,2.3,1,2.3,2.3  C52.5,39,51.4,40,50.1,40z M53.9,35.5c-0.8-1.3-2.1-2.1-3.7-2.1c-2.4,0-4.3,1.9-4.3,4.3c0,0.1,0,0.2,0,0.3l-25,7.7l-2.9-9.5  l51.1-15.8l2.9,9.5L53.9,35.5z M74.8,31l-4-12.9l2.2-0.7l4,12.9L74.8,31z M79.4,31.5L74.3,15l11.2-3.5L90.6,28L79.4,31.5z"/></svg>